HIERARCHY
ROOT ui
{
	 OFFSET 0 0 0
	 CHANNELS 3 XPosition YPosition Z Position
	 EndSite
	 {
	 OFFSET 0 -1 0
	 }
}
ROOT li
{
	 OFFSET 0 0 0
	 CHANNELS 3 XPosition YPosition Z Position
	 EndSite
	 {
	 OFFSET 0 -1 0
	 }
}
ROOT ul
{
	 OFFSET 0 0 0
	 CHANNELS 3 XPosition YPosition Z Position
	 EndSite
	 {
	 OFFSET 0 -1 0
	 }
}
ROOT ll
{
	 OFFSET 0 0 0
	 CHANNELS 3 XPosition YPosition Z Position
	 EndSite
	 {
	 OFFSET 0 -1 0
	 }
}
ROOT tt
{
	 OFFSET 0 0 0
	 CHANNELS 3 XPosition YPosition Z Position
	 EndSite
	 {
	 OFFSET 0 -1 0
	 }
}
ROOT tb
{
	 OFFSET 0 0 0
	 CHANNELS 3 XPosition YPosition Z Position
	 EndSite
	 {
	 OFFSET 0 -1 0
	 }
}
ROOT td
{
	 OFFSET 0 0 0
	 CHANNELS 3 XPosition YPosition Z Position
	 EndSite
	 {
	 OFFSET 0 -1 0
	 }
}
ROOT v
{
	 OFFSET 0 0 0
	 CHANNELS 3 XPosition YPosition Z Position
	 EndSite
	 {
	 OFFSET 0 -1 0
	 }
}
ROOT bn
{
	 OFFSET 0 0 0
	 CHANNELS 3 XPosition YPosition Z Position
	 EndSite
	 {
	 OFFSET 0 -1 0
	 }
}
MOTION
Frames: 13
Frame Time: 0.002
0.021222450256347655	0.003582676887512207	0		0.5430000610351563	-2.68752880859375	0		-0.9912568359375	-0.22128761291503907	0		-0.5165040283203125	-2.579657958984375	0		1.5702677001953125	-1.1407318115234375	0		3.260192138671875	-0.6239688720703125	0		4.330044921875	-0.24093966674804687	0		5.7101943359375	0.23250567626953125	0		-0.3062095031738281	5.92314697265625	0		
0.010465782165527343	0.0015358070135116576	0		0.5246608276367187	-2.667441650390625	0		-0.942997802734375	-0.22324887084960937	0		-0.5046559753417968	-2.547054931640625	0		1.5629066162109375	-1.1187755126953125	0		3.2383525390625	-0.6327448120117187	0		4.3492333984375	-0.24729331970214843	0		5.70677197265625	0.22393995666503907	0		-0.307115966796875	5.923939453125	0		
-0.010323479652404785	-0.003335767984390259	0		0.5001194152832031	-2.66123876953125	0		-1.018729248046875	-0.22433087158203124	0		-0.5290819091796874	-2.532885009765625	0		1.5593740234375	-1.1088536376953124	0		3.229716064453125	-0.6286953125	0		4.32345263671875	-0.25195468139648436	0		5.70697705078125	0.223926025390625	0		-0.28809490966796875	5.9184619140625	0		
0.011038533210754395	0.0011938530206680297	0		0.518606201171875	-2.6536494140625	0		-0.9464554443359375	-0.22658946228027343	0		-0.49751116943359375	-2.519520751953125	0		1.545921875	-1.09375732421875	0		3.2658720703125	-0.639289794921875	0		4.34265869140625	-0.258263916015625	0		5.70424853515625	0.21021336364746093	0		-0.3021448669433594	5.90750537109375	0		
-0.01771051025390625	-0.001502094030380249	0		0.5001403503417968	-2.642480712890625	0		-1.0500709228515626	-0.22020046997070314	0		-0.55385791015625	-2.499818115234375	0		1.5095911865234375	-1.070293212890625	0		3.254421630859375	-0.623146484375	0		4.32404931640625	-0.25198455810546877	0		5.70739697265625	0.2240116729736328	0		-0.3209463806152344	5.9126513671875	0		
0.01770970344543457	0.0068825678825378414	0		0.5315595092773437	-2.63902197265625	0		-0.9347127685546875	-0.21702915954589844	0		-0.509399658203125	-2.493581298828125	0		1.5521141357421875	-1.0569708251953125	0		3.257802978515625	-0.618197265625	0		4.34144873046875	-0.245213623046875	0		5.71472802734375	0.2221304931640625	0		-0.3548885803222656	5.9080517578125	0		
-0.014090648651123047	0.0012951459884643554	0		0.49812432861328126	-2.624568603515625	0		-1.009443359375	-0.218005859375	0		-0.5158563842773437	-2.480554443359375	0		1.5357984619140626	-1.031743408203125	0		3.258104248046875	-0.6181740112304688	0		4.32766796875	-0.24995443725585936	0		5.714251953125	0.227495361328125	0		-0.28760247802734373	5.91798828125	0		
0.012182046890258789	8.831650018692016E-4	0		0.542548828125	-2.619234375	0		-0.94124365234375	-0.2240622100830078	0		-0.5202972412109375	-2.465522705078125	0		1.5353065185546875	-1.0177197265625	0		3.27337890625	-0.61934228515625	0		4.3358603515625	-0.25599223327636716	0		5.7073505859375	0.23313627624511718	0		-0.3016346435546875	5.9071611328125	0		
-0.016596948623657227	-0.0016819080114364624	0		0.5199780883789062	-2.61187646484375	0		-1.0257901611328124	-0.21082565307617188	0		-0.515918701171875	-2.461587646484375	0		1.5317403564453125	-1.0076190795898436	0		3.25279052734375	-0.6099500732421875	0		4.33921630859375	-0.2499285888671875	0		5.711703125	0.21419737243652343	0		-0.315671875	5.89636865234375	0		
0.01268911075592041	9.317650198936463E-4	0		0.5263829345703125	-2.604912841796875	0		-1.0015430908203125	-0.2111602325439453	0		-0.5773920288085937	-2.445646484375	0		1.4963499755859375	-0.9840166625976563	0		3.258930419921875	-0.6179247436523437	0		4.3443486328125	-0.25786465454101565	0		5.71481640625	0.22822138977050782	0		-0.319335205078125	5.9114599609375	0		
-0.00598137903213501	0.008286379814147949	0		0.4989866943359375	-2.582417236328125	0		-0.9932122192382813	-0.20422308349609375	0		-0.5320052490234375	-2.438244873046875	0		1.5388104248046874	-0.9695296020507812	0		3.28744384765625	-0.5991966552734375	0		4.34276953125	-0.24467291259765625	0		5.71862841796875	0.24226292419433593	0		-0.3182451477050781	5.9105146484375	0		
0.013114274024963379	0.0011177899837493896	0		0.5511554565429687	-2.588061279296875	0		-1.0099032592773438	-0.19688262939453124	0		-0.5775935668945312	-2.426470458984375	0		1.522383056640625	-0.945144775390625	0		3.263716796875	-0.5946749267578125	0		4.3508857421875	-0.25060066223144534	0		5.72000048828125	0.2097152862548828	0		-0.3342975769042969	5.90085498046875	0		
-0.012710346221923827	0.0016415660381317138	0		0.5155494995117188	-2.575383544921875	0		-0.9377498779296874	-0.19881253051757813	0		-0.5512674560546875	-2.4187197265625	0		1.519732421875	-0.9339352416992187	0		3.26389892578125	-0.594480224609375	0		4.34798974609375	-0.25534400939941404	0		5.71231103515625	0.21558802795410156	0		-0.31429525756835935	5.89569873046875	0		
